<svg xmlns="http://www.w3.org/2000/svg" xmlns:xlink="http://www.w3.org/1999/xlink" contentStyleType="text/css" data-diagram-type="CLASS" height="955px" preserveAspectRatio="none" style="width:460px;height:955px;background:#FFFFFF;" version="1.1" viewBox="0 0 460 955" width="460px" zoomAndPan="magnify"><defs/><g><!--class Table--><g class="entity" data-entity="Table" data-source-line="2" data-uid="ent0002" id="entity_Table"><rect fill="#F1F1F1" height="212.8828" rx="2.5" ry="2.5" style="stroke:#181818;stroke-width:0.5;" width="241.6055" x="187.5" y="7"/><ellipse cx="285.4316" cy="23" fill="#ADD1B2" rx="11" ry="11" style="stroke:#181818;stroke-width:1;"/><path d="M287.9048,29.1431 Q287.3237,29.4419 286.6846,29.5913 Q286.0454,29.7407 285.3398,29.7407 Q282.833,29.7407 281.5132,28.0889 Q280.1934,26.437 280.1934,23.3159 Q280.1934,20.1865 281.5132,18.5347 Q282.833,16.8828 285.3398,16.8828 Q286.0454,16.8828 286.6929,17.0322 Q287.3403,17.1816 287.9048,17.4805 L287.9048,20.2031 Q287.2739,19.6221 286.6804,19.3523 Q286.0869,19.0825 285.4561,19.0825 Q284.1113,19.0825 283.4265,20.1492 Q282.7417,21.2158 282.7417,23.3159 Q282.7417,25.4077 283.4265,26.4744 Q284.1113,27.541 285.4561,27.541 Q286.0869,27.541 286.6804,27.2712 Q287.2739,27.0015 287.9048,26.4204 Z " fill="#000000"/><text fill="#000000" font-family="sans-serif" font-size="14" lengthAdjust="spacing" textLength="37.2422" x="305.9316" y="28.291">Table</text><line style="stroke:#181818;stroke-width:0.5;" x1="188.5" x2="428.1055" y1="39" y2="39"/><rect fill="none" height="6" style="stroke:#C82930;stroke-width:1;" width="6" x="195.5" y="49.7441"/><text fill="#000000" font-family="sans-serif" font-size="14" lengthAdjust="spacing" textLength="145.3799" x="207.5" y="56.5352">final int DINING_TIME</text><rect fill="none" height="6" style="stroke:#C82930;stroke-width:1;" width="6" x="195.5" y="66.2324"/><text fill="#000000" font-family="sans-serif" font-size="14" lengthAdjust="spacing" textLength="193.4365" x="207.5" y="73.0234">static final boolean VERBOSE</text><rect fill="none" height="6" style="stroke:#C82930;stroke-width:1;" width="6" x="195.5" y="82.7207"/><text fill="#000000" font-family="sans-serif" font-size="14" lengthAdjust="spacing" textLength="215.6055" x="207.5" y="89.5117">final Philosopher[] philosophers</text><rect fill="none" height="6" style="stroke:#C82930;stroke-width:1;" width="6" x="195.5" y="99.209"/><text fill="#000000" font-family="sans-serif" font-size="14" lengthAdjust="spacing" textLength="187.3662" x="207.5" y="106">final Chopstick[] chopsticks</text><line style="stroke:#181818;stroke-width:0.5;" x1="188.5" x2="428.1055" y1="112.9531" y2="112.9531"/><ellipse cx="198.5" cy="126.6973" fill="#84BE84" rx="3" ry="3" style="stroke:#038048;stroke-width:1;"/><text fill="#000000" font-family="sans-serif" font-size="14" lengthAdjust="spacing" textLength="194.291" x="207.5" y="130.4883">Table(int num_philosophers)</text><ellipse cx="198.5" cy="143.1855" fill="#84BE84" rx="3" ry="3" style="stroke:#038048;stroke-width:1;"/><text fill="#000000" font-family="sans-serif" font-size="14" lengthAdjust="spacing" textLength="71.5859" x="207.5" y="146.9766">void dine()</text><ellipse cx="198.5" cy="159.6738" fill="#84BE84" rx="3" ry="3" style="stroke:#038048;stroke-width:1;"/><text fill="#000000" font-family="sans-serif" font-size="14" lengthAdjust="spacing" textLength="128.0576" x="207.5" y="163.4648">void startThreads()</text><ellipse cx="198.5" cy="176.1621" fill="#84BE84" rx="3" ry="3" style="stroke:#038048;stroke-width:1;"/><text fill="#000000" font-family="sans-serif" font-size="14" lengthAdjust="spacing" textLength="126.7725" x="207.5" y="179.9531">void stopThreads()</text><ellipse cx="198.5" cy="192.6504" fill="#84BE84" rx="3" ry="3" style="stroke:#038048;stroke-width:1;"/><text fill="#000000" font-family="sans-serif" font-size="14" lengthAdjust="spacing" textLength="162.2236" x="207.5" y="196.4414">void summarizeDining()</text><ellipse cx="198.5" cy="209.1387" fill="#84BE84" rx="3" ry="3" style="stroke:#038048;stroke-width:1;"/><text fill="#000000" font-family="sans-serif" font-size="14" lengthAdjust="spacing" textLength="199.5957" x="207.5" y="212.9297">static void main(String[] args)</text></g><!--class Philosopher--><g class="entity" data-entity="Philosopher" data-source-line="15" data-uid="ent0003" id="entity_Philosopher"><rect fill="#F1F1F1" height="410.7422" rx="2.5" ry="2.5" style="stroke:#181818;stroke-width:0.5;" width="366.6074" x="7" y="280.88"/><ellipse cx="146.1113" cy="296.88" fill="#ADD1B2" rx="11" ry="11" style="stroke:#181818;stroke-width:1;"/><path d="M148.5845,303.0231 Q148.0034,303.3219 147.3643,303.4713 Q146.7251,303.6207 146.0195,303.6207 Q143.5127,303.6207 142.1929,301.9689 Q140.873,300.317 140.873,297.1959 Q140.873,294.0665 142.1929,292.4147 Q143.5127,290.7628 146.0195,290.7628 Q146.7251,290.7628 147.3726,290.9122 Q148.02,291.0616 148.5845,291.3605 L148.5845,294.0831 Q147.9536,293.5021 147.3601,293.2323 Q146.7666,292.9625 146.1357,292.9625 Q144.791,292.9625 144.1062,294.0292 Q143.4214,295.0958 143.4214,297.1959 Q143.4214,299.2877 144.1062,300.3544 Q144.791,301.421 146.1357,301.421 Q146.7666,301.421 147.3601,301.1512 Q147.9536,300.8815 148.5845,300.3004 Z " fill="#000000"/><text fill="#000000" font-family="sans-serif" font-size="14" lengthAdjust="spacing" textLength="79.8848" x="166.6113" y="302.171">Philosopher</text><line style="stroke:#181818;stroke-width:0.5;" x1="8" x2="372.6074" y1="312.88" y2="312.88"/><rect fill="none" height="6" style="stroke:#C82930;stroke-width:1;" width="6" x="15" y="323.6241"/><text fill="#000000" font-family="sans-serif" font-size="14" lengthAdjust="spacing" textLength="152.8174" x="27" y="330.4152">static boolean verbose</text><rect fill="none" height="6" style="stroke:#C82930;stroke-width:1;" width="6" x="15" y="340.1124"/><text fill="#000000" font-family="sans-serif" font-size="14" lengthAdjust="spacing" textLength="176.1621" x="27" y="346.9034">final int MAX_THINK_TIME</text><rect fill="none" height="6" style="stroke:#C82930;stroke-width:1;" width="6" x="15" y="356.6007"/><text fill="#000000" font-family="sans-serif" font-size="14" lengthAdjust="spacing" textLength="159.6055" x="27" y="363.3917">final int MAX_EAT_TIME</text><rect fill="none" height="6" style="stroke:#C82930;stroke-width:1;" width="6" x="15" y="373.089"/><text fill="#000000" font-family="sans-serif" font-size="14" lengthAdjust="spacing" textLength="195.8701" x="27" y="379.88">final Chopstick leftChopstick</text><rect fill="none" height="6" style="stroke:#C82930;stroke-width:1;" width="6" x="15" y="389.5773"/><text fill="#000000" font-family="sans-serif" font-size="14" lengthAdjust="spacing" textLength="206.0693" x="27" y="396.3683">final Chopstick rightChopstick</text><rect fill="none" height="6" style="stroke:#C82930;stroke-width:1;" width="6" x="15" y="406.0655"/><text fill="#000000" font-family="sans-serif" font-size="14" lengthAdjust="spacing" textLength="96.0381" x="27" y="412.8566">Thread thread</text><rect fill="none" height="6" style="stroke:#C82930;stroke-width:1;" width="6" x="15" y="422.5538"/><text fill="#000000" font-family="sans-serif" font-size="14" lengthAdjust="spacing" textLength="101.7188" x="27" y="429.3448">boolean dining</text><rect fill="none" height="6" style="stroke:#C82930;stroke-width:1;" width="6" x="15" y="439.0421"/><text fill="#000000" font-family="sans-serif" font-size="14" lengthAdjust="spacing" textLength="84.0684" x="27" y="445.8331">int eatCount</text><rect fill="none" height="6" style="stroke:#C82930;stroke-width:1;" width="6" x="15" y="455.5304"/><text fill="#000000" font-family="sans-serif" font-size="14" lengthAdjust="spacing" textLength="69.3506" x="27" y="462.3214">final int id</text><rect fill="none" height="6" style="stroke:#C82930;stroke-width:1;" width="6" x="15" y="472.0187"/><text fill="#000000" font-family="sans-serif" font-size="14" lengthAdjust="spacing" textLength="146.9043" x="27" y="478.8097">final Random random</text><line style="stroke:#181818;stroke-width:0.5;" x1="8" x2="372.6074" y1="485.7628" y2="485.7628"/><ellipse cx="18" cy="499.507" fill="#84BE84" rx="3" ry="3" style="stroke:#038048;stroke-width:1;"/><text fill="#000000" font-family="sans-serif" font-size="14" lengthAdjust="spacing" textLength="340.6074" x="27" y="503.298">Philosopher(int id, Chopstick left, Chopstick right)</text><ellipse cx="18" cy="515.9952" fill="#84BE84" rx="3" ry="3" style="stroke:#038048;stroke-width:1;"/><text fill="#000000" font-family="sans-serif" font-size="14" lengthAdjust="spacing" textLength="117.9951" x="27" y="519.7863">void startDining()</text><ellipse cx="18" cy="532.4835" fill="#84BE84" rx="3" ry="3" style="stroke:#038048;stroke-width:1;"/><text fill="#000000" font-family="sans-serif" font-size="14" lengthAdjust="spacing" textLength="116.71" x="27" y="536.2745">void stopDining()</text><ellipse cx="18" cy="548.9718" fill="#84BE84" rx="3" ry="3" style="stroke:#038048;stroke-width:1;"/><text fill="#000000" font-family="sans-serif" font-size="14" lengthAdjust="spacing" textLength="65.3447" x="27" y="552.7628">void run()</text><ellipse cx="18" cy="565.4601" fill="#84BE84" rx="3" ry="3" style="stroke:#038048;stroke-width:1;"/><text fill="#000000" font-family="sans-serif" font-size="14" lengthAdjust="spacing" textLength="147.9365" x="27" y="569.2511">void grabChopsticks()</text><ellipse cx="18" cy="581.9484" fill="#84BE84" rx="3" ry="3" style="stroke:#038048;stroke-width:1;"/><text fill="#000000" font-family="sans-serif" font-size="14" lengthAdjust="spacing" textLength="164.9785" x="27" y="585.7394">void releaseChopsticks()</text><ellipse cx="18" cy="598.4366" fill="#84BE84" rx="3" ry="3" style="stroke:#038048;stroke-width:1;"/><text fill="#000000" font-family="sans-serif" font-size="14" lengthAdjust="spacing" textLength="63.0068" x="27" y="602.2277">void eat()</text><ellipse cx="18" cy="614.9249" fill="#84BE84" rx="3" ry="3" style="stroke:#038048;stroke-width:1;"/><text fill="#000000" font-family="sans-serif" font-size="14" lengthAdjust="spacing" textLength="77.082" x="27" y="618.7159">void think()</text><ellipse cx="18" cy="631.4132" fill="#84BE84" rx="3" ry="3" style="stroke:#038048;stroke-width:1;"/><text fill="#000000" font-family="sans-serif" font-size="14" lengthAdjust="spacing" textLength="114.7275" x="27" y="635.2042">int getEatCount()</text><ellipse cx="18" cy="647.9015" fill="#84BE84" rx="3" ry="3" style="stroke:#038048;stroke-width:1;"/><text fill="#000000" font-family="sans-serif" font-size="14" lengthAdjust="spacing" textLength="66.1172" x="27" y="651.6925">int getId()</text><ellipse cx="18" cy="664.3898" fill="#84BE84" rx="3" ry="3" style="stroke:#038048;stroke-width:1;"/><text fill="#000000" font-family="sans-serif" font-size="14" lengthAdjust="spacing" textLength="242.792" x="27" y="668.1808">static void setVerbose(boolean flag)</text><ellipse cx="18" cy="680.878" fill="#84BE84" rx="3" ry="3" style="stroke:#038048;stroke-width:1;"/><text fill="#000000" font-family="sans-serif" font-size="14" lengthAdjust="spacing" textLength="107.3105" x="27" y="684.6691">String toString()</text></g><!--class Chopstick--><g class="entity" data-entity="Chopstick" data-source-line="40" data-uid="ent0004" id="entity_Chopstick"><rect fill="#F1F1F1" height="179.9063" rx="2.5" ry="2.5" style="stroke:#181818;stroke-width:0.5;" width="364.8369" x="69.89" y="768.62"/><ellipse cx="214.2787" cy="784.62" fill="#ADD1B2" rx="11" ry="11" style="stroke:#181818;stroke-width:1;"/><path d="M216.7518,790.7631 Q216.1708,791.0619 215.5316,791.2113 Q214.8924,791.3607 214.1869,791.3607 Q211.68,791.3607 210.3602,789.7089 Q209.0404,788.057 209.0404,784.9359 Q209.0404,781.8065 210.3602,780.1547 Q211.68,778.5028 214.1869,778.5028 Q214.8924,778.5028 215.5399,778.6522 Q216.1874,778.8016 216.7518,779.1005 L216.7518,781.8231 Q216.121,781.2421 215.5275,780.9723 Q214.9339,780.7025 214.3031,780.7025 Q212.9584,780.7025 212.2735,781.7692 Q211.5887,782.8358 211.5887,784.9359 Q211.5887,787.0277 212.2735,788.0944 Q212.9584,789.161 214.3031,789.161 Q214.9339,789.161 215.5275,788.8912 Q216.121,788.6215 216.7518,788.0404 Z " fill="#000000"/><text fill="#000000" font-family="sans-serif" font-size="14" lengthAdjust="spacing" textLength="67.5596" x="234.7787" y="789.911">Chopstick</text><line style="stroke:#181818;stroke-width:0.5;" x1="70.89" x2="433.7269" y1="800.62" y2="800.62"/><rect fill="none" height="6" style="stroke:#C82930;stroke-width:1;" width="6" x="77.89" y="811.3641"/><text fill="#000000" font-family="sans-serif" font-size="14" lengthAdjust="spacing" textLength="170.6797" x="89.89" y="818.1552">volatile boolean acquired</text><rect fill="none" height="6" style="stroke:#C82930;stroke-width:1;" width="6" x="77.89" y="827.8524"/><text fill="#000000" font-family="sans-serif" font-size="14" lengthAdjust="spacing" textLength="69.3506" x="89.89" y="834.6434">final int id</text><rect fill="none" height="6" style="stroke:#C82930;stroke-width:1;" width="6" x="77.89" y="844.3407"/><text fill="#000000" font-family="sans-serif" font-size="14" lengthAdjust="spacing" textLength="125.918" x="89.89" y="851.1317">Philosopher owner</text><line style="stroke:#181818;stroke-width:0.5;" x1="70.89" x2="433.7269" y1="858.0848" y2="858.0848"/><ellipse cx="80.89" cy="871.829" fill="#84BE84" rx="3" ry="3" style="stroke:#038048;stroke-width:1;"/><text fill="#000000" font-family="sans-serif" font-size="14" lengthAdjust="spacing" textLength="111.9248" x="89.89" y="875.62">Chopstick(int id)</text><ellipse cx="80.89" cy="888.3173" fill="#84BE84" rx="3" ry="3" style="stroke:#038048;stroke-width:1;"/><text fill="#000000" font-family="sans-serif" font-size="14" lengthAdjust="spacing" textLength="338.8369" x="89.89" y="892.1083">synchronized boolean acquire(Philosopher owner)</text><ellipse cx="80.89" cy="904.8055" fill="#84BE84" rx="3" ry="3" style="stroke:#038048;stroke-width:1;"/><text fill="#000000" font-family="sans-serif" font-size="14" lengthAdjust="spacing" textLength="185.4111" x="89.89" y="908.5966">synchronized void release()</text><ellipse cx="80.89" cy="921.2938" fill="#84BE84" rx="3" ry="3" style="stroke:#038048;stroke-width:1;"/><text fill="#000000" font-family="sans-serif" font-size="14" lengthAdjust="spacing" textLength="140.1162" x="89.89" y="925.0848">boolean isAvailable()</text><ellipse cx="80.89" cy="937.7821" fill="#84BE84" rx="3" ry="3" style="stroke:#038048;stroke-width:1;"/><text fill="#000000" font-family="sans-serif" font-size="14" lengthAdjust="spacing" textLength="66.1172" x="89.89" y="941.5731">int getId()</text></g><!--reverse link Table to Philosopher--><g class="link" data-entity-1="Table" data-entity-2="Philosopher" data-source-line="51" data-uid="lnk5" id="link_Table_Philosopher"><path codeLine="51" d="M271.0086,231.6342 C264.9386,250.6942 262.08,259.69 255.47,280.46" fill="none" id="Table-backto-Philosopher" style="stroke:#181818;stroke-width:1;"/><polygon fill="none" points="274.65,220.2,269.0179,224.7033,271.0086,231.6342,276.6407,227.1309,274.65,220.2" style="stroke:#181818;stroke-width:1;"/><text fill="#000000" font-family="sans-serif" font-size="13" lengthAdjust="spacing" textLength="8.2202" x="264.1276" y="240.4555">1</text><text fill="#000000" font-family="sans-serif" font-size="13" lengthAdjust="spacing" textLength="8.0679" x="249.6694" y="270.3688">n</text></g><!--reverse link Table to Chopstick--><g class="link" data-entity-1="Table" data-entity-2="Chopstick" data-source-line="52" data-uid="lnk6" id="link_Table_Chopstick"><path codeLine="52" d="M374.8532,230.9636 C383.6932,250.6136 386.49,260.45 391.3,280.88 C433.15,458.57 453.66,520.05 391.3,691.62 C381.29,719.17 364.47,745.34 345.93,768.41" fill="none" id="Table-backto-Chopstick" style="stroke:#181818;stroke-width:1;"/><polygon fill="none" points="369.93,220.02,368.7437,227.1329,374.8532,230.9636,376.0395,223.8507,369.93,220.02" style="stroke:#181818;stroke-width:1;"/><text fill="#000000" font-family="sans-serif" font-size="13" lengthAdjust="spacing" textLength="8.2202" x="365.9897" y="240.6204">1</text><text fill="#000000" font-family="sans-serif" font-size="13" lengthAdjust="spacing" textLength="8.0679" x="345.3546" y="757.9035">n</text></g><!--link Philosopher to Chopstick--><g class="link" data-entity-1="Philosopher" data-entity-2="Chopstick" data-source-line="53" data-uid="lnk7" id="link_Philosopher_Chopstick"><path codeLine="53" d="M178.93,692.05 C180.76,707.93 183.47,723.61 187.3,738.62 C189.84,748.54 193.39,758.53 197.53,768.26" fill="none" id="Philosopher-Chopstick" style="stroke:#181818;stroke-width:1;"/><text fill="#000000" font-family="sans-serif" font-size="13" lengthAdjust="spacing" textLength="20.6426" x="188.3" y="735.1884">left</text><text fill="#000000" font-family="sans-serif" font-size="13" lengthAdjust="spacing" textLength="8.2202" x="170.3815" y="712.2894">1</text><text fill="#000000" font-family="sans-serif" font-size="13" lengthAdjust="spacing" textLength="8.2202" x="184.6715" y="757.7411">1</text></g><!--link Philosopher to Chopstick--><g class="link" data-entity-1="Philosopher" data-entity-2="Chopstick" data-source-line="54" data-uid="lnk8" id="link_Philosopher_Chopstick"><path codeLine="54" d="M224.57,691.91 C229.05,718.68 233.44,744.89 237.35,768.29" fill="none" id="Philosopher-Chopstick-1" style="stroke:#181818;stroke-width:1;"/><text fill="#000000" font-family="sans-serif" font-size="13" lengthAdjust="spacing" textLength="30.1133" x="233.25" y="735.1884">right</text><text fill="#000000" font-family="sans-serif" font-size="13" lengthAdjust="spacing" textLength="8.2202" x="217.6617" y="712.1443">1</text><text fill="#000000" font-family="sans-serif" font-size="13" lengthAdjust="spacing" textLength="8.2202" x="227.7891" y="757.7736">1</text></g><!--SRC=[ZLHTJuCm57tVhsZsX75xsAjlSoDApARPo69Yp59e1yrAYst1gF6_Mw1qvME9l43FFRqzzznROWgb126CA0O_4w2VEJWH1YaWJ85ri0ss3ySmsFWc9XLK93QKY7EA8GC7VtV_lFSxsrzIGhdaUOh5spl8BolPeQrIdakTyQn9SVlTK6uRMLubX1NPqSrnOnWb9mWWmh3NGRHAeS9KO8XaFyBpyK2HPL2GRxmcZB341at1DIU3X7bx9NHSouKYqJf-9vEuzj0fs3ffDhS-bLX4NEA1pPlbwp5y3BPFhjFTiByCXq5h7g3ufEpg2aUG91sG6Y-0gby6Q-MYsWa3La8mL2jUC3LGI507sa66U0P4_J8-ElPupPPPJ_-ihtNOqbvlR4V7S56mBf086DaJUjqNM5SiyRMmBhmBg9ImiuMgUXAiV6DF7m_Gw3H9h0xDG7YjuoSAavRQp1bGlFdmd56x-DGEMicfJgplS9i9nXy54HXTRvKxh_oJOM7EjSbDcwpqBnQdWZDzHL3_66-GR7INQxMrf4r5vBA4XDPNVin0NNtpcvekfe3Fvs3AfcuH8z7BiBlwAaP5M3W4S5UFu7zuzMZ-0G00]--></g></svg>